<svg width="0" height="0" class="hidden">
  <symbol xmlns="http://www.w3.org/2000/svg" viewBox="0 0 241 54" id="Logo">
    <path fill="#fff" d="M25.24 42.79l16.65-.146-10.81-18.508-13.64 24.313L0 48.602 25.747 3.835l3.229 5.526L9.67 42.928l4.52-.04 16.792-29.93 20.555 35.19-28.619.252zm42.437 11.2L36.366.225l.371-.219 9.885 16.975v-5.317h5.181l4.22 7.042 4.22-7.042h5.181v18.19h-4.877V19.407l-4.524 7.121h-.1l-4.5-7.069v5.766L68.048 53.77zm2.808-33.178v-.052c0-5.224 4.094-9.459 9.553-9.459 5.459 0 9.502 4.183 9.502 9.407v.052c0 5.223-4.095 9.46-9.553 9.46-5.459 0-9.502-4.185-9.502-9.408zm14.051 0v-.052c0-2.625-1.845-4.912-4.55-4.912-2.678 0-4.472 2.235-4.472 4.86v.052c0 2.625 1.845 4.912 4.524 4.912 2.704 0 4.498-2.235 4.498-4.86zm10.089-9.147h4.574l7.278 9.615v-9.615h4.852v18.19h-4.296l-7.556-9.979v9.98h-4.852zm26.691 4.417h-5.307v-4.417h15.517v4.417h-5.307v13.773h-4.903zm14.99-4.417h4.929v18.19h-4.929zm10.086 9.147v-.052c0-5.301 3.968-9.459 9.325-9.459 3.614 0 5.939 1.559 7.506 3.794l-3.69 2.936c-1.01-1.299-2.173-2.13-3.866-2.13-2.476 0-4.22 2.156-4.22 4.807v.052c0 2.729 1.744 4.86 4.22 4.86 1.845 0 2.931-.884 3.993-2.21l3.69 2.703c-1.668 2.365-3.918 4.106-7.835 4.106-5.054 0-9.123-3.976-9.123-9.407zm21.586-9.147h14.229v4.287h-9.376v2.755h8.49v3.976h-8.49v2.884h9.502v4.288h-14.355zm19.388 0h4.903v13.773h8.567v4.417h-13.47zm18.099 0h4.902v13.773h8.568v4.417h-13.47zm16.48 9.147v-.052c0-5.224 4.095-9.459 9.554-9.459 5.459 0 9.502 4.183 9.502 9.407v.052c0 5.223-4.095 9.46-9.553 9.46-5.459 0-9.502-4.185-9.502-9.408zm14.052 0v-.052c0-2.625-1.845-4.912-4.55-4.912-2.678 0-4.472 2.235-4.472 4.86v.052c0 2.625 1.844 4.912 4.524 4.912 2.704 0 4.498-2.235 4.498-4.86zM71.494 39.707h.678v6.06h-.678zm5.875 0h.636l3.786 4.857v-4.857h.661v6.06h-.541l-3.88-4.97v4.97h-.662zm11.811.631h-2.018v-.63h4.722v.63h-2.018v5.43h-.686zm7.414-.63h4.345v.622h-3.666v2.07h3.279v.622h-3.28v2.121h3.71v.625h-4.388zm9.19 0h2.585c.739 0 1.331.224 1.709.605.291.294.463.719.463 1.194v.017c0 1.005-.687 1.594-1.63 1.767l1.845 2.477h-.833l-1.742-2.356h-1.717v2.356h-.68zm2.525 3.09c.902 0 1.545-.468 1.545-1.247v-.018c0-.745-.566-1.195-1.536-1.195h-1.854v2.46zm7.123-3.09h.636l3.786 4.856v-4.857h.66v6.06h-.54l-3.88-4.97v4.97h-.662zm12.446-.045h.635l2.739 6.105h-.73l-.704-1.603h-3.27l-.714 1.603h-.695zm1.674 3.888l-1.365-3.091-1.374 3.091zm7.14-3.213h-2.018v-.63h4.722v.63h-2.018v5.43h-.686zm7.475-.63h.677v6.06h-.677zm5.61 3.046v-.017c0-1.671 1.244-3.135 3.073-3.135s3.056 1.447 3.056 3.118v.017c0 1.67-1.245 3.134-3.074 3.134-1.829 0-3.056-1.446-3.056-3.117zm5.425 0v-.017c0-1.377-.996-2.502-2.37-2.502-1.373 0-2.352 1.108-2.352 2.485v.017c0 1.376.996 2.502 2.37 2.502 1.373 0 2.352-1.108 2.352-2.485zm5.577-3.047h.636l3.786 4.857v-4.857h.66v6.06h-.54l-3.881-4.97v4.97h-.661zm12.446-.044h.636l2.738 6.105h-.73l-.703-1.603h-3.27l-.714 1.603h-.695zm1.675 3.888l-1.366-3.091-1.373 3.091zm6.324-3.844h.679v5.428h3.382v.633h-4.06zm14.5 3.047v-.017c0-1.663 1.211-3.135 3.014-3.135 1.013 0 1.64.294 2.24.806l-.438.519c-.463-.406-.978-.692-1.827-.692-1.332 0-2.285 1.134-2.285 2.485v.017c0 1.445.919 2.52 2.379 2.52.687 0 1.322-.27 1.733-.606v-1.508h-1.827v-.614h2.48v2.416c-.558.502-1.4.926-2.413.926-1.888 0-3.055-1.385-3.055-3.117zm10.437-3.047h2.585c.738 0 1.33.225 1.708.606.292.294.464.719.464 1.194v.017c0 1.005-.688 1.594-1.631 1.767l1.845 2.477h-.833l-1.742-2.356h-1.717v2.356h-.679zm2.524 3.09c.902 0 1.545-.467 1.545-1.246v-.018c0-.745-.566-1.195-1.536-1.195h-1.854v2.46zm6.857-.043v-.017c0-1.671 1.244-3.135 3.073-3.135s3.056 1.447 3.056 3.118v.017c0 1.67-1.245 3.134-3.073 3.134-1.83 0-3.056-1.446-3.056-3.117zm5.425 0v-.017c0-1.377-.995-2.502-2.37-2.502-1.373 0-2.352 1.108-2.352 2.485v.017c0 1.376.996 2.502 2.37 2.502 1.373 0 2.352-1.108 2.352-2.485zm5.484.476v-3.523h.678v3.48c0 1.307.687 2.043 1.837 2.043 1.108 0 1.812-.676 1.812-2v-3.523h.678v3.472c0 1.766-1.004 2.683-2.507 2.683-1.485 0-2.498-.917-2.498-2.632zm10.05-3.523h2.25c1.356 0 2.249.727 2.249 1.922v.017c0 1.308-1.082 1.983-2.36 1.983h-1.46v2.139h-.679zm2.164 3.298c.995 0 1.648-.537 1.648-1.334v-.016c0-.867-.644-1.317-1.614-1.317h-1.52v2.667z"></path>
  </symbol>
  <symbol aria-hidden="true" data-prefix="fab" data-icon="twitter" xmlns="http://www.w3.org/2000/svg" viewBox="0 0 512 512" id="twitter">
    <path fill="currentColor" d="M459.37 151.716c.325 4.548.325 9.097.325 13.645 0 138.72-105.583 298.558-298.558 298.558-59.452 0-114.68-17.219-161.137-47.106 8.447.974 16.568 1.299 25.34 1.299 49.055 0 94.213-16.568 130.274-44.832-46.132-.975-84.792-31.188-98.112-72.772 6.498.974 12.995 1.624 19.818 1.624 9.421 0 18.843-1.3 27.614-3.573-48.081-9.747-84.143-51.98-84.143-102.985v-1.299c13.969 7.797 30.214 12.67 47.431 13.319-28.264-18.843-46.781-51.005-46.781-87.391 0-19.492 5.197-37.36 14.294-52.954 51.655 63.675 129.3 105.258 216.365 109.807-1.624-7.797-2.599-15.918-2.599-24.04 0-57.828 46.782-104.934 104.934-104.934 30.213 0 57.502 12.67 76.67 33.137 23.715-4.548 46.456-13.32 66.599-25.34-7.798 24.366-24.366 44.833-46.132 57.827 21.117-2.273 41.584-8.122 60.426-16.243-14.292 20.791-32.161 39.308-52.628 54.253z"></path>
  </symbol>
  <symbol aria-hidden="true" data-prefix="fas" data-icon="angle-down" xmlns="http://www.w3.org/2000/svg" viewBox="0 0 320 512" id="arrow-down">
    <path fill="currentColor" d="M143 352.3L7 216.3c-9.4-9.4-9.4-24.6 0-33.9l22.6-22.6c9.4-9.4 24.6-9.4 33.9 0l96.4 96.4 96.4-96.4c9.4-9.4 24.6-9.4 33.9 0l22.6 22.6c9.4 9.4 9.4 24.6 0 33.9l-136 136c-9.2 9.4-24.4 9.4-33.8 0z"></path>
  </symbol>
  <symbol aria-hidden="true" data-prefix="fab" data-icon="facebook-f" xmlns="http://www.w3.org/2000/svg" viewBox="0 0 320 512" id="facebook">
    <path fill="currentColor" d="M279.14 288l14.22-92.66h-88.91v-60.13c0-25.35 12.42-50.06 52.24-50.06h40.42V6.26S260.43 0 225.36 0c-73.22 0-121.08 44.38-121.08 124.72v70.62H22.89V288h81.39v224h100.17V288z"></path>
  </symbol>
  <symbol aria-hidden="true" data-prefix="fab" data-icon="instagram" xmlns="http://www.w3.org/2000/svg" viewBox="0 0 448 512" id="instagram">
    <path fill="currentColor" d="M224.1 141c-63.6 0-114.9 51.3-114.9 114.9s51.3 114.9 114.9 114.9S339 319.5 339 255.9 287.7 141 224.1 141zm0 189.6c-41.1 0-74.7-33.5-74.7-74.7s33.5-74.7 74.7-74.7 74.7 33.5 74.7 74.7-33.6 74.7-74.7 74.7zm146.4-194.3c0 14.9-12 26.8-26.8 26.8-14.9 0-26.8-12-26.8-26.8s12-26.8 26.8-26.8 26.8 12 26.8 26.8zm76.1 27.2c-1.7-35.9-9.9-67.7-36.2-93.9-26.2-26.2-58-34.4-93.9-36.2-37-2.1-147.9-2.1-184.9 0-35.8 1.7-67.6 9.9-93.9 36.1s-34.4 58-36.2 93.9c-2.1 37-2.1 147.9 0 184.9 1.7 35.9 9.9 67.7 36.2 93.9s58 34.4 93.9 36.2c37 2.1 147.9 2.1 184.9 0 35.9-1.7 67.7-9.9 93.9-36.2 26.2-26.2 34.4-58 36.2-93.9 2.1-37 2.1-147.8 0-184.8zM398.8 388c-7.8 19.6-22.9 34.7-42.6 42.6-29.5 11.7-99.5 9-132.1 9s-102.7 2.6-132.1-9c-19.6-7.8-34.7-22.9-42.6-42.6-11.7-29.5-9-99.5-9-132.1s-2.6-102.7 9-132.1c7.8-19.6 22.9-34.7 42.6-42.6 29.5-11.7 99.5-9 132.1-9s102.7-2.6 132.1 9c19.6 7.8 34.7 22.9 42.6 42.6 11.7 29.5 9 99.5 9 132.1s2.7 102.7-9 132.1z"></path>
  </symbol>
   <symbol aria-hidden="true" data-prefix="fas" data-icon="map-marker-alt" xmlns="http://www.w3.org/2000/svg" viewBox="0 0 384 512" id="location">
    <path fill="currentColor" d="M172.268 501.67C26.97 291.031 0 269.413 0 192 0 85.961 85.961 0 192 0s192 85.961 192 192c0 77.413-26.97 99.031-172.268 309.67-9.535 13.774-29.93 13.773-39.464 0zM192 272c44.183 0 80-35.817 80-80s-35.817-80-80-80-80 35.817-80 80 35.817 80 80 80z"></path>
  </symbol>
</svg>